<svg width="25" height="23" viewBox="0 0 25 23" fill="none" xmlns="http://www.w3.org/2000/svg">
<path d="M2.90527 0.782227L1.78223 1.90527L6.61621 6.71484L16.748 16.8467L22.0947 22.2178L23.2178 21.0947L18.2617 16.1387C21.463 14.509 23.8495 12.2111 23.999 12.0615L24.5117 11.5488L24.0234 10.9873C23.822 10.7523 19.0582 5.25 12.5 5.25C10.9436 5.25 9.49402 5.57654 8.17871 6.05566L2.90527 0.782227ZM12.5 6.8125C14.1907 6.8125 15.7501 7.24585 17.1387 7.8623C17.6666 8.7229 17.9688 9.70251 17.9688 10.7188C17.9688 12.1378 17.4225 13.4287 16.5283 14.4053L14.3066 12.1836C14.6301 11.7838 14.8438 11.2742 14.8438 10.7188C14.8438 9.42786 13.7909 8.375 12.5 8.375C11.9446 8.375 11.4349 8.58862 11.0352 8.91211L9.42383 7.30078C10.3912 7.01086 11.4136 6.8125 12.5 6.8125ZM5.17578 7.49609C2.64587 9.04944 1.08948 10.853 0.976562 10.9873L0.488281 11.5488L1.00098 12.0615C1.22375 12.2843 6.32629 17.2678 11.7676 17.7012H11.8164C12.0422 17.7195 12.2742 17.75 12.5 17.75C12.7258 17.75 12.9578 17.7195 13.1836 17.7012H13.2324C13.855 17.6523 14.4806 17.5394 15.0879 17.3838L13.7451 16.041C13.5498 16.0868 13.3392 16.1173 13.1348 16.1387L13.0371 16.1631C12.6709 16.1936 12.326 16.1936 11.9629 16.1631L11.8896 16.1387C9.12476 15.8274 7.03125 13.505 7.03125 10.7188C7.03125 10.3007 7.08313 9.89783 7.17773 9.49805L5.17578 7.49609ZM5.68848 9.03418C5.55115 9.5835 5.46875 10.142 5.46875 10.7188C5.46875 11.9791 5.81055 13.1571 6.39648 14.1855C4.73938 13.1998 3.37524 12.0859 2.66113 11.4512C3.24402 10.8713 4.30298 9.92834 5.68848 9.03418ZM19.3115 9.03418C20.697 9.92834 21.7316 10.8958 22.3145 11.4756C21.6003 12.1104 20.2606 13.1998 18.6035 14.1855C19.1895 13.1571 19.5312 11.9791 19.5312 10.7188C19.5312 10.145 19.4458 9.5835 19.3115 9.03418ZM12.5 9.9375C12.9303 9.9375 13.2812 10.2885 13.2812 10.7188C13.2812 10.8469 13.2385 10.9537 13.1836 11.0605L12.1582 10.0352C12.265 9.98022 12.3718 9.9375 12.5 9.9375Z" fill="black"/>
</svg>
